<svg xmlns="http://www.w3.org/2000/svg" width="20" height="20" viewBox="0 0 20 20">
  <g id="Iconly_Bold_Work" data-name="Iconly/Bold/Work" transform="translate(-2 -2)">
    <g id="Work" transform="translate(2 2)">
      <path id="Path_7" data-name="Path 7" d="M19.81,10.815a.2.2,0,0,1,.089.159v.013l-.08,5.164A3.826,3.826,0,0,1,16.214,20l-.2,0H3.972a3.821,3.821,0,0,1-3.8-3.65l0-.2L.1,10.987a.212.212,0,0,1,.09-.172.183.183,0,0,1,.19.02,17.076,17.076,0,0,0,7,2.633.753.753,0,0,0,.82-.547,1.814,1.814,0,0,1,1.623-1.371l.158-.006h.03A1.816,1.816,0,0,1,11.8,12.922a.753.753,0,0,0,.82.547,17.076,17.076,0,0,0,7-2.633l.04-.02A.158.158,0,0,1,19.81,10.815ZM9.995,12.992a.76.76,0,0,0-.743.657l-.007.1v1.306a.754.754,0,0,0,.75.759.745.745,0,0,0,.744-.655l.007-.1V13.752A.754.754,0,0,0,9.995,12.992ZM11.286,0a2.971,2.971,0,0,1,2.922,2.613h1.981A3.841,3.841,0,0,1,20,6.471s-.06.9-.08,2.154a.33.33,0,0,1-.129.255c-.481.355-.921.649-.962.669a15.252,15.252,0,0,1-5.647,2.288.318.318,0,0,1-.334-.163,3.3,3.3,0,0,0-2.853-1.649,3.351,3.351,0,0,0-2.872,1.642.319.319,0,0,1-.332.16,15.491,15.491,0,0,1-5.62-2.268h0L.21,8.891a.286.286,0,0,1-.13-.243C.05,8.132,0,6.471,0,6.471A3.841,3.841,0,0,1,3.812,2.613H5.783A2.971,2.971,0,0,1,8.7,0h2.581Zm0,1.519H8.7A1.453,1.453,0,0,0,7.3,2.613h5.383a1.453,1.453,0,0,0-1.4-1.094Z"/>
    </g>
  </g>
</svg>
